HIERARCHY
ROOT hip
{
  OFFSET 0 0 0
  CHANNELS 6 Xposition Yposition Zposition Zrotation Yrotation Xrotation
  JOINT abdomen
  {
    OFFSET 0 20.6881 -0.73152
    CHANNELS 3 Zrotation Xrotation Yrotation
    JOINT chest
    {
      OFFSET 0 11.7043 -0.48768
      CHANNELS 3 Zrotation Xrotation Yrotation
      JOINT neck
      {
        OFFSET 0 22.1894 -2.19456
        CHANNELS 3 Zrotation Xrotation Yrotation
        JOINT head
        {
          OFFSET -0.24384 7.07133 1.2192
          CHANNELS 3 Zrotation Xrotation Yrotation
          JOINT leftEye
          {
            OFFSET 4.14528 8.04674 8.04672
            CHANNELS 3 Zrotation Xrotation Yrotation
            End Site
            {
              OFFSET 1 0 0
            }
          }
          JOINT rightEye
          {
            OFFSET -3.6576 8.04674 8.04672
            CHANNELS 3 Zrotation Xrotation Yrotation
            End Site
            {
              OFFSET 1 0 0
            }
          }
        }
      }
      JOINT rCollar
      {
        OFFSET -2.68224 19.2634 -4.8768
        CHANNELS 3 Zrotation Xrotation Yrotation
        JOINT rShldr
        {
          OFFSET -8.77824 -1.95073 1.46304
          CHANNELS 3 Zrotation Xrotation Yrotation
          JOINT rForeArm
          {
            OFFSET -28.1742 -1.7115 0.48768
            CHANNELS 3 Zrotation Xrotation Yrotation
            JOINT rHand
            {
              OFFSET -22.5879 0.773209 7.07136
              CHANNELS 3 Zrotation Xrotation Yrotation
              JOINT rThumb1
              {
                OFFSET -1.2192 -0.487915 3.41376
                CHANNELS 3 Zrotation Xrotation Yrotation
                JOINT rThumb2
                {
                  OFFSET -3.37035 -0.52449 3.41376
                  CHANNELS 3 Zrotation Xrotation Yrotation
                  End Site
                  {
                    OFFSET -1.78271 -1.18214 1.43049
                  }
                }
              }
              JOINT rIndex1
              {
                OFFSET -7.75947 0.938293 5.60832
                CHANNELS 3 Zrotation Xrotation Yrotation
                JOINT rIndex2
                {
                  OFFSET -2.54057 -0.884171 1.56538
                  CHANNELS 3 Zrotation Xrotation Yrotation
                  End Site
                  {
                    OFFSET -1.62519 -0.234802 1.16502
                  }
                }
              }
              JOINT rMid1
              {
                OFFSET -8.24714 1.18213 3.41376
                CHANNELS 3 Zrotation Xrotation Yrotation
                JOINT rMid2
                {
                  OFFSET -3.10165 -0.590103 1.0647
                  CHANNELS 3 Zrotation Xrotation Yrotation
                  End Site
                  {
                    OFFSET -2.48547 -0.328903 0.83742
                  }
                }
              }
              JOINT rRing1
              {
                OFFSET -8.82822 0.546677 1.51678
                CHANNELS 3 Zrotation Xrotation Yrotation
                JOINT rRing2
                {
                  OFFSET -2.60934 -0.819778 -0.0198488
                  CHANNELS 3 Zrotation Xrotation Yrotation
                  End Site
                  {
                    OFFSET -2.33842 -0.294052 0.168128
                  }
                }
              }
              JOINT rPinky1
              {
                OFFSET -8.27202 -0.0477905 -0.4584
                CHANNELS 3 Zrotation Xrotation Yrotation
                JOINT rPinky2
                {
                  OFFSET -1.82734 -0.647385 -0.700984
                  CHANNELS 3 Zrotation Xrotation Yrotation
                  End Site
                  {
                    OFFSET -1.69225 -0.51767 -0.607171
                  }
                }
              }
            }
          }
        }
      }
      JOINT lCollar
      {
        OFFSET 2.68224 19.2634 -4.8768
        CHANNELS 3 Zrotation Xrotation Yrotation
        JOINT lShldr
        {
          OFFSET 8.77824 -1.95073 1.46304
          CHANNELS 3 Zrotation Xrotation Yrotation
          JOINT lForeArm
          {
            OFFSET 28.1742 -1.7115 0.48768
            CHANNELS 3 Zrotation Xrotation Yrotation
            JOINT lHand
            {
              OFFSET 22.5879 0.773209 7.07136
              CHANNELS 3 Zrotation Xrotation Yrotation
              JOINT lThumb1
              {
                OFFSET 1.2192 -0.487915 3.41376
                CHANNELS 3 Zrotation Xrotation Yrotation
                JOINT lThumb2
                {
                  OFFSET 3.37035 -0.52449 3.41376
                  CHANNELS 3 Zrotation Xrotation Yrotation
                  End Site
                  {
                    OFFSET 1.78271 -1.18214 1.43049
                  }
                }
              }
              JOINT lIndex1
              {
                OFFSET 7.75947 0.938293 5.60832
                CHANNELS 3 Zrotation Xrotation Yrotation
                JOINT lIndex2
                {
                  OFFSET 2.54057 -0.884171 1.56538
                  CHANNELS 3 Zrotation Xrotation Yrotation
                  End Site
                  {
                    OFFSET 1.62519 -0.234802 1.16502
                  }
                }
              }
              JOINT lMid1
              {
                OFFSET 8.24714 1.18213 3.41376
                CHANNELS 3 Zrotation Xrotation Yrotation
                JOINT lMid2
                {
                  OFFSET 3.10165 -0.590103 1.0647
                  CHANNELS 3 Zrotation Xrotation Yrotation
                  End Site
                  {
                    OFFSET 2.48547 -0.328903 0.83742
                  }
                }
              }
              JOINT lRing1
              {
                OFFSET 8.82822 0.546677 1.51678
                CHANNELS 3 Zrotation Xrotation Yrotation
                JOINT lRing2
                {
                  OFFSET 2.60934 -0.819778 -0.0198488
                  CHANNELS 3 Zrotation Xrotation Yrotation
                  End Site
                  {
                    OFFSET 2.33842 -0.294052 0.168128
                  }
                }
              }
              JOINT lPinky1
              {
                OFFSET 8.27202 -0.0477905 -0.4584
                CHANNELS 3 Zrotation Xrotation Yrotation
                JOINT lPinky2
                {
                  OFFSET 1.82734 -0.647385 -0.700984
                  CHANNELS 3 Zrotation Xrotation Yrotation
                  End Site
                  {
                    OFFSET 1.69225 -0.51767 -0.607171
                  }
                }
              }
            }
          }
        }
      }
    }
  }
  JOINT rButtock
  {
    OFFSET -8.77824 4.35084 1.2192
    CHANNELS 3 Zrotation Xrotation Yrotation
    JOINT rThigh
    {
      OFFSET 0 -1.70687 -2.19456
      CHANNELS 3 Zrotation Xrotation Yrotation
      JOINT rShin
      {
        OFFSET 0 -36.8199 0.73152
        CHANNELS 3 Zrotation Xrotation Yrotation
        JOINT rFoot
        {
          OFFSET 0.73152 -45.1104 -5.12064
          CHANNELS 3 Zrotation Xrotation Yrotation
          End Site
          {
            OFFSET -1.1221 -3.69964 12.103
          }
        }
      }
    }
  }
  JOINT lButtock
  {
    OFFSET 8.77824 4.35084 1.2192
    CHANNELS 3 Zrotation Xrotation Yrotation
    JOINT lThigh
    {
      OFFSET 0 -1.70687 -2.19456
      CHANNELS 3 Zrotation Xrotation Yrotation
      JOINT lShin
      {
        OFFSET 0 -36.8199 0.73152
        CHANNELS 3 Zrotation Xrotation Yrotation
        JOINT lFoot
        {
          OFFSET -0.73152 -45.1104 -5.12064
          CHANNELS 3 Zrotation Xrotation Yrotation
          End Site
          {
            OFFSET 1.1221 -3.69964 12.103
          }
        }
      }
    }
  }
}
MOTION
Frames:	4
Frame Time:	0.03333
3.6098000175115885 55.53929805755615 -67.77700006496161 0.908899996321061 49.286901182905886 4.966499911101663 -5.423760158579684 12.230600326914747 -2.5245800705488137 5.826179963438026 -11.421800061253101 -0.20236999405144174 -9.694349597508497 20.496299746299186 -15.16319924989402 11.618400226322748 -30.81910102575608 -27.458099831428914 -0.0 0.0 0.0 -0.0 0.0 0.0 -1.1970100119887142e-14 1.1410499562809843e-13 6.048019871614494e-14 52.108500140362345 -6.326910096114946 30.488799907683433 -27.984400057924244 -30.519600645745605 68.07859915578145 -0.6579100210343976 22.40310073236457 3.321329961523852 -6.624679941533239e-10 -2.164530066594013e-09 -8.888660387045923e-10 -1.1595800437330314e-09 -3.749260122391964e-09 -1.5223200191302682e-09 -6.624640184599721e-10 -2.1645199285759658e-09 -8.888660387045923e-10 7.730910121524428 5.474879855648998 0.41731399283890674 -6.624720195428427e-10 -2.1645199285759658e-09 -8.888629575422447e-10 2.90554006136521 0.9651829962377875 0.10290200252939893 -6.624640184599721e-10 -2.1645199285759658e-09 -8.888619636189067e-10 10.278599710243157 0.7318009818271524 0.025912300303053633 -6.624709759233378e-10 -2.1645199285759658e-09 -8.888569940022169e-10 2.221669932038622 -0.7334870246959406 -0.20891999872313852 -1.1884800095137275e-14 1.1409999689256084e-13 6.03310980825981e-14 -91.29370180498111 76.21730230660691 16.57520084191617 27.650999741515704 -41.96039973194875 -87.51250225027289 20.119000096547683 -72.82489761002331 27.046500679212897 -1.0959600047937195e-09 7.883409801767544e-10 -3.751940087584265e-10 -1.8613699311596254e-09 2.0017200566505743e-09 -6.966939927767198e-10 -1.0959600047937195e-09 7.883340227133887e-10 -3.751780065926854e-10 -7.730910121524428 5.474879855648998 -0.41731399283890674 -1.095949966168006e-09 7.883510188024677e-10 -3.751910021403292e-10 -2.90554006136521 0.9651829962377875 -0.10290200252939893 -1.0959600047937195e-09 7.883510188024677e-10 -3.751929899870051e-10 -10.278599710243157 0.7318009818271524 -0.025912300303053633 -1.0959600047937195e-09 7.883510188024677e-10 -3.75203997687973e-10 -2.221669932038622 -0.7334870246959406 0.20891999872313852 -2.0321699793705798e-16 0.0 -3.882510030490358e-19 -56.43760039481607 -47.88559908221856 -60.286999388386874 -2.178120005560386 70.48790057417926 2.4735799017899747 0.7282459750858665 -2.8946299013831727 5.082500001983752 2.0321699793705798e-16 0.0 3.882510030490358e-19 33.43379989287451 -20.567200524978503 28.734400932568544 1.06605998108041 68.67380233062387 -4.109670182083312 7.471250234942638 -20.283300297032337 22.760500625969243
3.6156500176730333 55.482298135757446 -67.87830006796867 0.6846999973107445 49.24449936853845 4.78119986712698 -5.272369869399998 12.257199644863714 -2.545640105080902 5.866650114930821 -11.406199909188793 -0.19900100324333295 -9.653559707785181 20.543400730815595 -15.155199390828642 11.643899883815346 -30.887300464618658 -27.43480034862271 -0.0 0.0 0.0 -0.0 0.0 0.0 -1.6748800297412804e-14 2.04303004702185e-13 2.2628800170770442e-13 52.173598673341736 -6.424130154987262 30.60459893487183 -27.969300217216638 -30.431798563965092 67.93830024004022 -0.6445139923595927 22.188200782961168 3.285989922427971 -2.6331399729651203e-10 -2.2217400951421704e-09 -1.6133799954069052e-09 -4.7953198084342e-10 -3.869859997234362e-09 -2.7792700608432928e-09 -2.6330699013697943e-10 -2.2217400951421704e-09 -1.6133799954069052e-09 7.730910121524428 5.474879855648998 0.41731399283890674 -2.6331700391460935e-10 -2.2217400951421704e-09 -1.6133699567811919e-09 2.90554006136521 0.9651829962377875 0.10290200252939893 -2.6330599621364145e-10 -2.2217400951421704e-09 -1.6133699567811919e-09 10.278599710243157 0.7318009818271524 0.025912300303053633 -2.6331899176128525e-10 -2.2217400951421704e-09 -1.6133699567811919e-09 2.221669932038622 -0.7334870246959406 -0.20891999872313852 -1.671959955286167e-14 2.0429999575457984e-13 2.2611100764454375e-13 -91.14590334153121 76.41440107548597 16.44209923801284 27.660099261037455 -41.92580140870805 -87.4476974154278 20.39280018225869 -72.98160264015091 27.332900756395286 -2.028329968608371e-09 -1.0138399713726735e-09 -4.640380081050042e-10 -3.4550500678312144e-09 -5.697029920865879e-10 -8.989679773345895e-10 -2.028329968608371e-09 -1.0138500099983868e-09 -4.6402498770927696e-10 -7.730910121524428 5.474879855648998 -0.41731399283890674 -2.028329968608371e-09 -1.0138500099983868e-09 -4.640380081050042e-10 -2.90554006136521 0.9651829962377875 -0.10290200252939893 -2.028329968608371e-09 -1.0138399713726735e-09 -4.6403999595168015e-10 -10.278599710243157 0.7318009818271524 -0.025912300303053633 -2.028329968608371e-09 -1.0138399713726735e-09 -4.640520224240694e-10 -2.221669932038622 -0.7334870246959406 0.20891999872313852 -2.0321699793705798e-16 0.0 -3.882510030490358e-19 -56.40740071340086 -47.85310104214764 -60.37209671525606 -2.1681699140435584 70.4055967946806 2.4539300878780828 0.7492279960510284 -2.8361600669932785 5.238650079241291 2.0321699793705798e-16 0.0 3.882510030490358e-19 33.61809888724896 -20.73389982940913 28.81030140972031 1.0940700532581034 68.99430212723755 -4.146609979548857 7.5432498203046805 -20.470799235032942 22.75849938054243
3.6314300170488423 55.42510151863098 -67.97130006598309 0.6025000046709633 49.22450057464865 4.690699860624311 -5.229100194121144 12.295900350474653 -2.568169910945012 5.936099905298334 -11.397400064216876 -0.19613999441453064 -9.627790257820369 20.58659996976863 -15.155600664442382 11.705299869359175 -30.917599183776833 -27.420200819271805 -0.0 0.0 0.0 -0.0 0.0 0.0 -1.5859199781489256e-14 2.5921498814791816e-13 3.0225199001000387e-13 52.20089893945428 -6.503149894155609 30.69359971485168 -27.954299414252 -30.34640070877242 67.80170328682914 -0.635813025048084 22.0475005936062 3.2629100728922635 3.456090109212053e-10 -1.691350001322644e-09 -2.141939978184251e-09 5.662789758834918e-10 -2.9762100067195136e-09 -3.702890020552237e-09 3.456189998507518e-10 -1.691350001322644e-09 -2.141939978184251e-09 7.730910121524428 5.474879855648998 0.41731399283890674 3.4560699822644596e-10 -1.691350001322644e-09 -2.141930038950871e-09 2.90554006136521 0.9651829962377875 0.10290200252939893 3.456180059274138e-10 -1.691350001322644e-09 -2.141930038950871e-09 10.278599710243157 0.7318009818271524 0.025912300303053633 3.456020037616727e-10 -1.691350001322644e-09 -2.141930038950871e-09 2.221669932038622 -0.7334870246959406 -0.20891999872313852 -1.5897700358053872e-14 2.5921498814791816e-13 3.0205301121676043e-13 -90.90349992788745 76.621301165824 16.267900385873542 27.66440057266727 -41.90939870941626 -87.41690009246021 20.592400507921266 -73.09369970480917 27.54160060157961 -2.800099911021532e-09 -4.716070026828507e-09 -3.170659926153317e-10 -4.785140144999174e-09 -6.5095601624070024e-09 -6.926020103943493e-10 -2.8001100490395794e-09 -4.716070026828507e-09 -3.1705699760912317e-10 -7.730910121524428 5.474879855648998 -0.41731399283890674 -2.800099911021532e-09 -4.716089905295266e-09 -3.1706999315676697e-10 -2.90554006136521 0.9651829962377875 -0.10290200252939893 -2.8001100490395794e-09 -4.716070026828507e-09 -3.1706999315676697e-10 -10.278599710243157 0.7318009818271524 -0.025912300303053633 -2.800099911021532e-09 -4.716070026828507e-09 -3.170819947810728e-10 -2.221669932038622 -0.7334870246959406 0.20891999872313852 -2.0321699793705798e-16 0.0 -3.882510030490358e-19 -56.45670101883001 -47.80359924613797 -60.46120336316805 -2.1608199901663903 70.34200090331862 2.4383100855764983 0.7744709878412204 -2.7959099756578047 5.413849980980819 2.0321699793705798e-16 0.0 3.882510030490358e-19 33.713800082804596 -20.872499735594317 28.85129962021331 1.1169500130388823 69.25570029696311 -4.178659788455495 7.604689933209884 -20.603600310612794 22.7829002313523
3.6526600171782775 55.37490248680115 -68.05250006727874 0.6339999833494159 49.19070138354084 4.685999836701695 -5.293230120898863 12.323400399620418 -2.5723600185574034 6.003880141300601 -11.385699950168645 -0.19167900043243963 -9.617520214629609 20.627099576452224 -15.172100693929838 11.762799816886927 -30.910799730458088 -27.439900792385416 -0.0 0.0 0.0 -0.0 0.0 0.0 -8.640379894111906e-14 4.284320137060789e-13 1.698650048514992e-13 52.19939971293146 -6.541590198804441 30.753298983292176 -27.940299234000765 -30.267600816317984 67.67580240985829 -0.6326620133240338 21.995900221974043 3.2544700935122433 1.5645500326980676e-09 -7.97052022487614e-10 -3.543459946311856e-09 2.651260089947087e-09 -1.492689971717754e-09 -6.1464398125483295e-09 1.5645599719314472e-09 -7.970509788681092e-10 -3.5434698855452355e-09 7.730910121524428 5.474879855648998 0.41731399283890674 1.5645500326980676e-09 -7.97052022487614e-10 -3.543459946311856e-09 2.90554006136521 0.9651829962377875 0.10290200252939893 1.5645500326980676e-09 -7.97052022487614e-10 -3.543459946311856e-09 10.278599710243157 0.7318009818271524 0.025912300303053633 1.5645399940723543e-09 -7.970499849447712e-10 -3.5434500070784763e-09 2.221669932038622 -0.7334870246959406 -0.20891999872313852 -8.641400267069942e-14 4.2842900475847376e-13 1.6969999804734613e-13 -90.69330085618031 76.80799755659712 16.173199813031317 27.657500374058266 -41.93550027732946 -87.46579741672834 20.559999798046018 -73.07559970350863 27.507700665181545 -3.5271099074024573e-09 -8.662980153929329e-09 -1.6711599644451309e-10 -6.034139992716545e-09 -1.2909799889580082e-08 -4.79005002689635e-10 -3.5271099074024573e-09 -8.662969817126614e-09 -1.6710500116758693e-10 -7.730910121524428 5.474879855648998 -0.41731399283890674 -3.527099968169078e-09 -8.662980153929329e-09 -1.6711799671523073e-10 -2.90554006136521 0.9651829962377875 -0.10290200252939893 -3.5271099074024573e-09 -8.662969817126614e-09 -1.671190030626104e-10 -10.278599710243157 0.7318009818271524 -0.025912300303053633 -3.527099968169078e-09 -8.662969817126614e-09 -1.6713100468691625e-10 -2.221669932038622 -0.7334870246959406 0.20891999872313852 -2.0321699793705798e-16 0.0 -3.882510030490358e-19 -56.6275991820529 -47.74609929861022 -60.607499185000556 -2.1580100076531648 70.30470124026118 2.4269899008008484 0.7975619897951823 -2.726869996640493 5.620169932126217 2.0321699793705798e-16 0.0 3.882510030490358e-19 33.682801269256494 -20.935299909918 28.866401168468208 1.131440045919653 69.43530012118859 -4.204749830424475 7.675519848676563 -20.640300624570564 22.91240061801574
